<?xml version="1.0" standalone="no"?>
<!DOCTYPE svg PUBLIC "-//W3C//DTD SVG 20010904//EN"
 "http://www.w3.org/TR/2001/REC-SVG-20010904/DTD/svg10.dtd">
<svg version="1.0" xmlns="http://www.w3.org/2000/svg"
 width="1120.000000pt" height="1280.000000pt" viewBox="0 0 1120.000000 1280.000000"
 preserveAspectRatio="xMidYMid meet">
<metadata>
Created by potrace 1.16, written by Peter Selinger 2001-2019
</metadata>
<g transform="translate(0.000000,1280.000000) scale(0.100000,-0.100000)"
fill="#f00" stroke="none">
<path d="M5325 12794 c-239 -26 -594 -126 -807 -230 l-38 -18 -2 -815 -3 -816
-105 -23 c-834 -184 -1537 -507 -2200 -1010 -416 -316 -778 -684 -1099 -1115
-163 -220 -370 -556 -490 -794 -277 -555 -468 -1185 -540 -1783 -6 -47 -16
-132 -23 -190 -9 -70 -13 -236 -12 -500 0 -409 7 -508 54 -826 155 -1045 635
-2056 1355 -2854 84 -93 366 -372 445 -440 41 -36 81 -71 89 -78 8 -8 66 -55
130 -106 472 -375 962 -650 1555 -872 292 -110 706 -215 1040 -264 318 -47
417 -54 826 -54 378 -1 445 3 695 35 1131 145 2164 622 3015 1394 69 62 289
282 356 355 636 697 1087 1550 1300 2459 147 627 182 1306 100 1956 -17 133
-22 159 -67 390 -128 657 -410 1348 -781 1909 -32 48 -58 91 -58 95 0 3 257
263 572 578 l572 572 -13 38 c-77 219 -260 551 -397 722 -64 80 -196 212 -273
275 -182 147 -494 321 -719 401 l-53 19 -572 -572 c-315 -315 -575 -572 -578
-572 -4 0 -53 31 -110 68 -491 323 -1064 572 -1649 717 -96 23 -205 49 -242
56 l-68 13 0 816 0 817 -57 26 c-201 89 -424 158 -663 203 -73 14 -405 26
-485 18z m565 -2574 c874 -76 1675 -372 2375 -878 131 -95 245 -184 300 -234
17 -16 53 -47 82 -70 68 -57 332 -324 414 -418 35 -41 66 -77 69 -80 21 -21
134 -168 212 -275 372 -514 638 -1103 777 -1722 80 -353 111 -648 111 -1038 0
-762 -151 -1413 -485 -2090 -376 -763 -928 -1389 -1645 -1863 -179 -119 -278
-174 -515 -292 -581 -286 -1115 -429 -1795 -480 -304 -23 -719 -1 -1057 55
-778 130 -1507 450 -2134 936 -45 35 -105 84 -133 109 -29 25 -69 59 -90 77
-55 46 -227 215 -331 325 -570 601 -989 1397 -1163 2213 -156 727 -147 1429
29 2143 215 874 692 1689 1350 2307 127 119 160 148 290 252 564 449 1194 755
1889 918 63 15 139 31 168 36 28 5 78 14 110 19 332 59 821 80 1172 50z"/>
<path d="M5367 9450 c-92 -36 -169 -107 -215 -200 l-27 -55 0 -1900 0 -1900
32 -60 c41 -80 98 -137 175 -177 59 -30 69 -32 168 -33 93 0 111 3 162 27 67
31 140 96 174 154 58 98 54 -23 52 2011 l-3 1868 -33 65 c-17 36 -42 76 -55
90 -42 48 -120 100 -170 115 -71 21 -200 19 -260 -5z"/>
</g>
</svg>
